<?xml version="1.0" encoding="UTF-8"?>
<svg id="Layer_2" data-name="Layer 2" xmlns="http://www.w3.org/2000/svg" xmlns:xlink="http://www.w3.org/1999/xlink" viewBox="0 0 6.06 4.2">
  <defs>
    <style>
      .cls-1 {
        fill: url(#linear-gradient);
      }
    </style>
    <linearGradient id="linear-gradient" x1="5.13" y1=".18" x2=".77" y2="3.17" gradientUnits="userSpaceOnUse">
      <stop offset="0" stop-color="#ea6900"/>
      <stop offset=".09" stop-color="#ee7600"/>
      <stop offset=".24" stop-color="#f0dfc2"/>
      <stop offset=".45" stop-color="#e2871f"/>
      <stop offset=".49" stop-color="#c86611"/>
      <stop offset=".52" stop-color="#b54e07"/>
      <stop offset=".55" stop-color="#a93f02"/>
      <stop offset=".58" stop-color="#a63b00"/>
      <stop offset=".78" stop-color="#da6d1a"/>
      <stop offset=".89" stop-color="#e59024"/>
      <stop offset=".94" stop-color="#e38d20"/>
      <stop offset=".99" stop-color="#de8515"/>
      <stop offset="1" stop-color="#dd8312"/>
    </linearGradient>
  </defs>
  <g id="Sub_1" data-name="Sub 1">
    <path class="cls-1" d="M.27,0C-.13.91-.14,1.66.6,2.34c.5.46,1.04.96,1.62,1.31.68.42,1.69.79,2.44.36.44-.25.54-.59.73-1.02.19-.43.57-.75.66-1.22.06-.32-1.6-.98-1.54-1.28-.09.47-.47.79-.66,1.22-.21.47-.32.83-.84,1.07-.8.38-1.84-.08-2.52-.54.5.42,1.01.83,1.51,1.25-.7-.62-.54-1.45-.2-2.22C1.89,1.1.2.15.27,0H.27Z"/>
  </g>
</svg>