<?xml version="1.0" encoding="UTF-8"?>
<svg id="Layer_2" data-name="Layer 2" xmlns="http://www.w3.org/2000/svg" xmlns:xlink="http://www.w3.org/1999/xlink" viewBox="0 0 10.47 9.73">
  <defs>
    <style>
      .cls-1 {
        fill: url(#linear-gradient-2);
      }

      .cls-2 {
        fill: url(#linear-gradient-3);
      }

      .cls-3 {
        fill: url(#linear-gradient);
      }
    </style>
    <linearGradient id="linear-gradient" x1="-18.82" y1="-225.5" x2="-24.34" y2="-219.98" gradientTransform="translate(-178.57 133.87) rotate(61.35)" gradientUnits="userSpaceOnUse">
      <stop offset="0" stop-color="#f06000"/>
      <stop offset=".09" stop-color="#f36d00"/>
      <stop offset=".24" stop-color="#f4dec0"/>
      <stop offset=".34" stop-color="#f27f14"/>
      <stop offset=".44" stop-color="#d5600b"/>
      <stop offset=".54" stop-color="#bf4805"/>
      <stop offset=".63" stop-color="#b13901"/>
      <stop offset=".71" stop-color="#ad3500"/>
    </linearGradient>
    <linearGradient id="linear-gradient-2" x1="-24.34" y1="-223.87" x2="-26.29" y2="-221.92" gradientTransform="translate(-178.57 133.87) rotate(61.35)" gradientUnits="userSpaceOnUse">
      <stop offset=".06" stop-color="#ad3500"/>
      <stop offset=".64" stop-color="#f36d00"/>
      <stop offset="1" stop-color="#f06000"/>
    </linearGradient>
    <linearGradient id="linear-gradient-3" x1="-25.8" y1="-225.2" x2="-30.63" y2="-220.38" gradientTransform="translate(-178.57 133.87) rotate(61.35)" gradientUnits="userSpaceOnUse">
      <stop offset="0" stop-color="#fa7d00"/>
      <stop offset=".09" stop-color="#fe8b00"/>
      <stop offset=".24" stop-color="#f6e5c0"/>
      <stop offset=".45" stop-color="#fb9b15"/>
      <stop offset=".46" stop-color="#f89714"/>
      <stop offset=".49" stop-color="#dd760b"/>
      <stop offset=".53" stop-color="#ca5e05"/>
      <stop offset=".56" stop-color="#be4f01"/>
      <stop offset=".58" stop-color="#bb4b00"/>
      <stop offset=".78" stop-color="#f37e11"/>
      <stop offset=".89" stop-color="#fda41a"/>
      <stop offset=".94" stop-color="#fba116"/>
      <stop offset=".99" stop-color="#f89b0b"/>
      <stop offset="1" stop-color="#f79908"/>
    </linearGradient>
  </defs>
  <g id="Sub_1" data-name="Sub 1">
    <g>
      <path class="cls-3" d="M3.34,7.36c-.03.67-.09,1.5.46,1.99.5.44,1.19.4,1.81.35,1.46-.12,3.04-.04,4.45-.46.33-.1.11-2.01.41-2.11-1.41.42-2.99.34-4.45.46-.61.05-1.32.1-1.81-.35-.55-.5-.5-1.31-.46-1.99-.03.7-.38,1.4-.41,2.11h0Z"/>
      <path class="cls-1" d="M5.64,3.48c.16.35.3.68.29,1.07.13-.69.27-1.38.4-2.07-.14.54-.67.75-1.11,1-.61.33-1.08.77-1.33,1.43-.36.92-.62,2.18-.57,3.16-.03-.69.44-1.41.41-2.11-.02-.19-.01-.38.02-.57-.13.65-.26,1.31-.39,1.96.21-.72.61-1.3,1.27-1.68.46-.27,1.03-.44,1.26-.97.21-.48.24-1.1.33-1.62.13-.67.12-1.07-.17-1.72.08.18-.18.85-.22,1.05-.04.23-.29.84-.19,1.05h0Z"/>
      <path class="cls-2" d="M0,3.92c.83-1.06,2.25-1.74,3.59-1.81,1.57-.09,1.88,1.13,2.4,2.36-.05-.38.61-1.81.38-2.37C5.85.87,5.59-.08,4,0,2.66.08,1.24.75.41,1.82c-.4.51-.02,1.61-.41,2.11h0Z"/>
    </g>
  </g>
</svg>